<svg width="20" height="19" viewBox="0 0 20 19" fill="none" xmlns="http://www.w3.org/2000/svg">
<g id="Star" clip-path="url(#clip0_165_13215)">
<path id="Star_2" d="M9.64429 1.86773C9.80062 1.49188 10.3331 1.49188 10.4894 1.86773L12.3804 6.41436C12.4463 6.57281 12.5954 6.68107 12.7664 6.69478L17.6749 7.08829C18.0806 7.12082 18.2452 7.6272 17.936 7.89202L14.1963 11.0955C14.066 11.2071 14.009 11.3823 14.0489 11.5492L15.1914 16.3391C15.2859 16.735 14.8551 17.048 14.5077 16.8358L10.3054 14.269C10.1589 14.1796 9.97475 14.1796 9.82829 14.269L5.62597 16.8358C5.27857 17.048 4.84782 16.735 4.94227 16.3391L6.08482 11.5492C6.12464 11.3823 6.06772 11.2071 5.93739 11.0955L2.19766 7.89202C1.88851 7.6272 2.05304 7.12082 2.45881 7.08829L7.36727 6.69478C7.53833 6.68107 7.68734 6.57281 7.75325 6.41436L9.64429 1.86773Z" fill="#FEC84B"/>
</g>
<defs>
<clipPath id="clip0_165_13215">
<rect width="18.3056" height="18.3056" fill="white" transform="translate(0.914062 0.394287)"/>
</clipPath>
</defs>
</svg>
