<svg width="29" height="14" viewBox="0 0 29 14" fill="none" xmlns="http://www.w3.org/2000/svg">
<g id="Discover">
<path id="Stripe" d="M17.8613 13.4582L28.1542 10.3433V11.833C28.1542 12.7306 27.4265 13.4582 26.529 13.4582H17.8613Z" fill="#FD6020"/>
<path id="DISC-VER" fill-rule="evenodd" clip-rule="evenodd" d="M24.7767 0.225811C25.7204 0.225811 26.2395 0.662392 26.2395 1.48705C26.2867 2.11766 25.862 2.65126 25.2957 2.74828L26.5698 4.54311H25.5789L24.4935 2.79679H24.3992V4.54311H23.597V0.225811H24.7767ZM24.399 2.2147H24.6349C25.154 2.2147 25.3899 1.97216 25.3899 1.53557C25.3899 1.1475 25.154 0.904955 24.6349 0.904955H24.399V2.2147ZM20.8118 4.54309H23.0769V3.81545H21.6141V2.65124H23.0297V1.9236H21.6141V0.953421H23.0769V0.225786H20.8118V4.54309ZM18.453 3.13633L17.3676 0.225786H16.5182L18.2642 4.64011H18.6889L20.4349 0.225786H19.5855L18.453 3.13633ZM8.87372 2.40874C8.87372 3.62147 9.8175 4.64016 10.9972 4.64016C11.3747 4.64016 11.7051 4.54314 12.0354 4.39761V3.42743C11.7994 3.71849 11.4691 3.91252 11.0916 3.91252C10.3366 3.91252 9.72312 3.33041 9.72312 2.55427V2.45725C9.67593 1.68111 10.2894 1.00198 11.0444 0.953473C11.4219 0.953473 11.7994 1.14751 12.0354 1.43856V0.468383C11.7522 0.274347 11.3747 0.225838 11.0444 0.225838C9.8175 0.12882 8.87372 1.14751 8.87372 2.40874ZM7.41082 1.87512C6.93893 1.68109 6.79736 1.58407 6.79736 1.34152C6.84455 1.05047 7.08049 0.807923 7.36363 0.856432C7.59957 0.856432 7.83552 1.00196 8.02427 1.196L8.44897 0.613887C8.11865 0.322833 7.69395 0.128797 7.26925 0.128797C6.60861 0.0802875 6.04234 0.613887 5.99515 1.29301V1.34152C5.99515 1.92363 6.2311 2.26319 6.98612 2.50574C7.17487 2.55425 7.36363 2.65127 7.55238 2.74828C7.69395 2.8453 7.78833 2.99083 7.78833 3.18487C7.78833 3.52443 7.50519 3.81548 7.22206 3.81548H7.17487C6.79736 3.81548 6.46704 3.57294 6.32547 3.23337L5.8064 3.76697C6.08953 4.30057 6.6558 4.59163 7.22206 4.59163C7.97708 4.64014 8.59054 4.05803 8.63773 3.28188V3.13636C8.59054 2.55425 8.35459 2.26319 7.41082 1.87512ZM4.67321 4.54309H5.47542V0.225786H4.67321V4.54309ZM0.945312 0.225821H2.12503H2.36098C3.49351 0.27433 4.39009 1.24451 4.34291 2.40873C4.34291 3.03934 4.05977 3.62145 3.58788 4.05803C3.16319 4.3976 2.64411 4.59163 2.12503 4.54312H0.945312V0.225821ZM1.98327 3.81551C2.36078 3.86401 2.78548 3.71849 3.06861 3.47594C3.35174 3.18489 3.49331 2.79682 3.49331 2.36024C3.49331 1.97216 3.35174 1.58409 3.06861 1.29304C2.78548 1.05049 2.36078 0.904966 1.98327 0.953475H1.74732V3.81551H1.98327Z" fill="black"/>
<path id="O" fill-rule="evenodd" clip-rule="evenodd" d="M14.4422 0.125732C13.2624 0.125732 12.2715 1.09591 12.2715 2.35715C12.2715 3.56987 13.2153 4.58856 14.4422 4.63707C15.6691 4.68558 16.6129 3.66689 16.66 2.40566C16.6129 1.14442 15.6691 0.125732 14.4422 0.125732V0.125732Z" fill="#FD6020"/>
</g>
</svg>
