<svg width="25" height="24" viewBox="0 0 25 24" fill="none" xmlns="http://www.w3.org/2000/svg">
<g id="Message">
<path id="Vector 13 (Stroke)" fill-rule="evenodd" clip-rule="evenodd" d="M12.5974 5.45455C10.3043 5.45455 7.1809 5.64867 5.19749 5.79141C4.5388 5.83882 4.02865 6.35372 4.02865 6.98262V7.69328L11.9669 11.8107C12.359 12.0141 12.8358 12.0141 13.2279 11.8107L21.1661 7.69328V6.98261C21.1661 6.35372 20.656 5.83882 19.9973 5.79141C18.0139 5.64867 14.8905 5.45455 12.5974 5.45455ZM21.1661 9.35722L13.9845 13.0822C13.1218 13.5296 12.0729 13.5296 11.2103 13.0822L4.02865 9.35722V17.0174C4.02865 17.6463 4.5388 18.1612 5.19749 18.2086C7.1809 18.3513 10.3043 18.5455 12.5974 18.5455C14.8905 18.5455 18.0139 18.3513 19.9973 18.2086C20.656 18.1612 21.1661 17.6463 21.1661 17.0174V9.35722ZM5.07775 4.34117C7.06235 4.19834 10.2385 4 12.5974 4C14.9562 4 18.1324 4.19834 20.117 4.34117C21.6002 4.44791 22.724 5.60588 22.724 6.98261V17.0174C22.724 18.3941 21.6002 19.5521 20.117 19.6588C18.1324 19.8017 14.9562 20 12.5974 20C10.2385 20 7.06235 19.8017 5.07775 19.6588C3.59459 19.5521 2.4707 18.3941 2.4707 17.0174V6.98262C2.4707 5.60589 3.59458 4.44791 5.07775 4.34117Z" fill="white"/>
</g>
</svg>
