<svg width="23" height="10" viewBox="0 0 23 10" fill="none" xmlns="http://www.w3.org/2000/svg">
<g id="GooglePay">
<g id="Pay">
<path id="Union" fill-rule="evenodd" clip-rule="evenodd" d="M10.8394 8.02003V5.37039H12.207C12.7673 5.37039 13.2403 5.18262 13.6259 4.8123L13.7184 4.71841C14.4228 3.95169 14.3765 2.75726 13.6259 2.04791C13.2506 1.67237 12.7365 1.46895 12.207 1.47939H10.0117V8.02003H10.8394ZM10.8391 4.56713V2.2826H12.2274C12.5257 2.2826 12.8085 2.39735 13.0193 2.60598C13.4666 3.04411 13.4769 3.77433 13.045 4.22811C12.8342 4.45239 12.536 4.57757 12.2274 4.56713H10.8391ZM17.5798 3.89429C17.2251 3.56569 16.7418 3.39878 16.13 3.39878C15.3434 3.39878 14.7522 3.69087 14.3615 4.26983L15.0915 4.73403C15.3589 4.33763 15.7239 4.13943 16.1866 4.13943C16.4796 4.13943 16.7624 4.24896 16.9834 4.44716C17.1994 4.63493 17.3228 4.90616 17.3228 5.19303V5.38601C17.004 5.20867 16.603 5.11479 16.1095 5.11479C15.5337 5.11479 15.071 5.2504 14.7265 5.52684C14.3821 5.80328 14.2073 6.16839 14.2073 6.63259C14.197 7.05508 14.3769 7.4567 14.6957 7.72792C15.0196 8.02 15.4308 8.16605 15.9141 8.16605C16.4848 8.16605 16.9372 7.91047 17.2816 7.39932H17.3176V8.02H18.1093V5.26083C18.1093 4.68188 17.9345 4.22288 17.5798 3.89429ZM15.3332 7.19589C15.1635 7.07071 15.0607 6.8673 15.0607 6.64823C15.0607 6.40309 15.1738 6.19967 15.3949 6.03798C15.6212 5.87629 15.904 5.79284 16.2382 5.79284C16.701 5.78762 17.0609 5.89194 17.318 6.10057C17.318 6.45525 17.1792 6.76298 16.9066 7.02377C16.6598 7.27413 16.3256 7.41496 15.976 7.41496C15.7446 7.42017 15.5183 7.34194 15.3332 7.19589ZM19.8883 9.98631L22.6542 3.54477H21.7545L20.4744 6.75772H20.459L19.148 3.54477H18.2483L20.0631 7.73308L19.0349 9.98631H19.8883Z" fill="#3C4043"/>
</g>
<g id="G">
<path id="Blue" d="M7.98413 4.79667C7.98413 4.54109 7.96356 4.28552 7.92243 4.03516H4.43164V5.47994H6.43152C6.34926 5.94415 6.08193 6.36141 5.69121 6.62221V7.56105H6.88394C7.58312 6.90908 7.98413 5.94415 7.98413 4.79667Z" fill="#4285F4"/>
<path id="Green" d="M4.43071 8.46847C5.42808 8.46847 6.27122 8.13466 6.88301 7.56092L5.69028 6.62207C5.35611 6.85157 4.9294 6.98196 4.43071 6.98196C3.46419 6.98196 2.64676 6.31955 2.35372 5.43286H1.125V6.40301C1.75221 7.67045 3.03234 8.46847 4.43071 8.46847Z" fill="#34A853"/>
<path id="Yellow" d="M2.35464 5.43282C2.20038 4.96861 2.20038 4.46267 2.35464 3.99325V3.02832H1.12573C0.596112 4.08713 0.596112 5.33893 1.12573 6.39774L2.35464 5.43282Z" fill="#FBBC04"/>
<path id="Red" d="M4.43071 2.44426C4.96024 2.43383 5.46921 2.63724 5.84965 3.00757L6.90871 1.93311C6.23523 1.29678 5.35097 0.947315 4.43071 0.957747C3.03234 0.957747 1.75221 1.76098 1.125 3.02843L2.35372 3.99857C2.64676 3.10667 3.46419 2.44426 4.43071 2.44426Z" fill="#EA4335"/>
</g>
</g>
</svg>
