<svg width="15" height="14" viewBox="0 0 15 14" fill="none" xmlns="http://www.w3.org/2000/svg">
<g id="Ideal">
<path id="Union" fill-rule="evenodd" clip-rule="evenodd" d="M0.0292969 0.474609H7.33424C12.2981 0.474609 14.2057 3.26717 14.2057 6.79697C14.2057 11.0193 11.5395 13.1417 7.33424 13.1417H0.0292969V0.474609ZM0.723522 1.23422V12.4268H7.33482C11.3233 12.4268 13.4909 10.5055 13.4909 6.81934C13.4909 3.02146 11.1499 1.23422 7.33482 1.23422H0.723522ZM2.67472 7.02038C3.40498 7.02038 3.99698 6.41024 3.99698 5.65761C3.99698 4.90497 3.40498 4.29484 2.67472 4.29484C1.94446 4.29484 1.35246 4.90497 1.35246 5.65761C1.35246 6.41024 1.94446 7.02038 2.67472 7.02038ZM1.61274 7.60122H3.73703V11.4885H1.61274V7.60122Z" fill="black"/>
<path id="Shape" fill-rule="evenodd" clip-rule="evenodd" d="M11.083 4.40654H11.69V6.28314H12.5787C12.3403 2.86505 9.71742 2.10547 7.33301 2.10547H4.79688V4.40654H5.16537C5.85902 4.40654 6.27087 4.87569 6.27087 5.65761C6.27087 6.43952 5.85902 6.90867 5.18705 6.90867H4.79688V11.4885H7.33301C11.2131 11.4885 12.5353 9.63421 12.6004 6.90867H11.083V4.40654ZM8.15631 6.28316V6.90869H6.63896V4.40656H8.11296V5.03209H7.2459V5.32252H8.0696V5.94805H7.26758V6.28316H8.15631ZM8.41651 6.90869L9.15351 4.40656H10.0206L10.7576 6.90869H10.1289L9.99889 6.43954H9.19686L9.0668 6.90869H8.41651ZM9.37766 5.79161H9.37088V5.81395L9.37766 5.79161ZM9.37766 5.79161H9.80441L9.60932 5.09906H9.58765L9.37766 5.79161ZM4.79688 6.28314V5.03207H5.16537C5.40381 5.03207 5.66393 5.09909 5.66393 5.6576C5.66393 6.21612 5.42549 6.28314 5.16537 6.28314H4.79688Z" fill="#D50072"/>
</g>
</svg>
