<svg width="19" height="15" viewBox="0 0 19 15" fill="none" xmlns="http://www.w3.org/2000/svg">
<g id="JCB">
<path id="Vector" d="M13.9806 7.79332C14.4603 7.80374 14.9427 7.77214 15.4204 7.80974C15.9042 7.9 16.0209 8.63245 15.591 8.87233C15.2977 9.03036 14.9493 8.93119 14.6314 8.95906H13.9806V7.79332ZM15.6978 6.47385C15.8043 6.85001 15.4417 7.18775 15.0794 7.13595H13.9806C13.9883 6.78122 13.9656 6.39619 13.9918 6.06014C14.432 6.07254 14.8762 6.03485 15.3139 6.07984C15.5019 6.12709 15.6593 6.28167 15.6978 6.47385ZM18.3422 0.895534C18.3627 1.6139 18.3452 2.37024 18.3511 3.10318C18.3497 6.08304 18.3539 9.06283 18.3487 12.0429C18.3294 13.1596 17.3397 14.13 16.2307 14.1523C15.1205 14.1568 14.0103 14.153 12.9 14.1542V9.64931C14.1097 9.64307 15.32 9.66199 16.5292 9.63987C17.0901 9.60465 17.7046 9.23453 17.7307 8.61722C17.7967 7.99724 17.2122 7.56842 16.6573 7.50069C16.4439 7.49515 16.4502 7.43851 16.6573 7.41379C17.1866 7.2994 17.6022 6.75158 17.4465 6.20294C17.3138 5.6259 16.676 5.40256 16.1455 5.40367C15.0638 5.39632 13.9819 5.40264 12.9002 5.40051C12.9072 4.55949 12.8856 3.71757 12.9118 2.87717C12.9975 1.78055 14.0122 0.876201 15.1056 0.895821C16.1846 0.895657 17.2635 0.895657 18.3422 0.895616V0.895534Z" fill="url(#paint0_linear_323_6733)"/>
<path id="Vector_2" d="M0.675256 2.99071C0.702881 1.8757 1.69684 0.913268 2.80446 0.896972C3.91048 0.893565 5.01666 0.89648 6.12267 0.895494C6.11964 4.62607 6.12867 8.35706 6.11812 12.0874C6.07551 13.1889 5.09239 14.133 3.99684 14.1525C2.88873 14.1565 1.78049 14.1531 0.672342 14.1542V9.49735C1.74872 9.75164 2.87748 9.85988 3.97558 9.69122C4.63196 9.5856 5.35013 9.26326 5.57236 8.58229C5.73589 7.99979 5.64382 7.38675 5.66816 6.78889V5.40047H3.7678C3.75926 6.31874 3.78528 7.23861 3.75404 8.15577C3.70282 8.71951 3.14453 9.07769 2.61285 9.05856C1.95347 9.06554 0.64681 8.58069 0.64681 8.58069C0.643526 6.86023 0.665938 4.70562 0.675256 2.99087V2.99071Z" fill="url(#paint1_linear_323_6733)"/>
<path id="Vector_3" d="M6.83126 5.96046C6.73123 5.98168 6.81115 5.61972 6.78558 5.48242C6.79239 4.61427 6.77133 3.74518 6.79719 2.87764C6.88265 1.77639 7.90509 0.869778 9.00297 0.895556H12.2362C12.2331 4.62613 12.2421 8.35712 12.2316 12.0875C12.189 13.189 11.2058 14.133 10.1102 14.1525C9.00203 14.1567 7.89376 14.1532 6.78554 14.1543V9.05209C7.5424 9.6731 8.57108 9.76976 9.51401 9.77145C10.2249 9.7712 10.9316 9.6616 11.6219 9.49766V8.56293C10.8439 8.95067 9.9294 9.19695 9.06701 8.97419C8.46542 8.82445 8.02873 8.24305 8.03845 7.62221C7.96876 6.97658 8.34721 6.29495 8.98167 6.10301C9.7694 5.8564 10.6279 6.04501 11.3663 6.36563C11.5245 6.44847 11.6851 6.55121 11.6219 6.28678V5.55208C10.3869 5.25826 9.07267 5.15014 7.83199 5.46978C7.47287 5.57108 7.12298 5.72472 6.83126 5.96054V5.96046Z" fill="url(#paint2_linear_323_6733)"/>
</g>
<defs>
<linearGradient id="paint0_linear_323_6733" x1="12.8628" y1="7.2414" x2="18.3167" y2="7.2414" gradientUnits="userSpaceOnUse">
<stop stop-color="#58B03A"/>
<stop offset="1" stop-color="#55B330"/>
</linearGradient>
<linearGradient id="paint1_linear_323_6733" x1="0.556379" y1="7.6518" x2="6.03331" y2="7.6518" gradientUnits="userSpaceOnUse">
<stop stop-color="#0F6EB6"/>
<stop offset="1" stop-color="#006DBA"/>
</linearGradient>
<linearGradient id="paint2_linear_323_6733" x1="6.77754" y1="7.36987" x2="12.2351" y2="7.36987" gradientUnits="userSpaceOnUse">
<stop stop-color="#DE0D3D"/>
<stop offset="1" stop-color="#E30138"/>
</linearGradient>
</defs>
</svg>
