<svg width="21" height="13" viewBox="0 0 21 13" fill="none" xmlns="http://www.w3.org/2000/svg">
<g id="Maestro">
<path id="Left" d="M12.9661 6.5689C12.9661 9.91271 10.2865 12.6234 6.98111 12.6234C3.67568 12.6234 0.996094 9.91271 0.996094 6.5689C0.996094 3.22509 3.67568 0.514404 6.98111 0.514404C10.2865 0.514404 12.9661 3.22509 12.9661 6.5689Z" fill="#ED0006"/>
<path id="Right" d="M20.7298 6.5689C20.7298 9.91271 18.0502 12.6234 14.7448 12.6234C11.4394 12.6234 8.75977 9.91271 8.75977 6.5689C8.75977 3.22509 11.4394 0.514404 14.7448 0.514404C18.0502 0.514404 20.7298 3.22509 20.7298 6.5689Z" fill="#0099DF"/>
<path id="Middle" fill-rule="evenodd" clip-rule="evenodd" d="M10.8628 11.1773C12.1497 10.0667 12.9657 8.41426 12.9657 6.56897C12.9657 4.72368 12.1497 3.0712 10.8628 1.96069C9.57581 3.0712 8.75977 4.72368 8.75977 6.56897C8.75977 8.41426 9.57581 10.0667 10.8628 11.1773Z" fill="#6C6BBD"/>
</g>
</svg>
