<svg width="22" height="13" viewBox="0 0 22 13" fill="none" xmlns="http://www.w3.org/2000/svg">
<g id="Mastercard">
<path id="Left" fill-rule="evenodd" clip-rule="evenodd" d="M10.9563 11.1952C9.88732 12.0962 8.50066 12.6401 6.98543 12.6401C3.60426 12.6401 0.863281 9.93174 0.863281 6.5908C0.863281 3.24987 3.60426 0.541504 6.98543 0.541504C8.50066 0.541504 9.88732 1.08541 10.9563 1.98642C12.0254 1.08541 13.412 0.541504 14.9273 0.541504C18.3084 0.541504 21.0494 3.24987 21.0494 6.5908C21.0494 9.93174 18.3084 12.6401 14.9273 12.6401C13.412 12.6401 12.0254 12.0962 10.9563 11.1952Z" fill="#ED0006"/>
<path id="Right" fill-rule="evenodd" clip-rule="evenodd" d="M10.957 11.1952C12.2735 10.0856 13.1083 8.43454 13.1083 6.5908C13.1083 4.74706 12.2735 3.09597 10.957 1.98642C12.0261 1.08541 13.4127 0.541504 14.9279 0.541504C18.3091 0.541504 21.0501 3.24987 21.0501 6.5908C21.0501 9.93174 18.3091 12.6401 14.9279 12.6401C13.4127 12.6401 12.0261 12.0962 10.957 11.1952Z" fill="#F9A000"/>
<path id="Middle" fill-rule="evenodd" clip-rule="evenodd" d="M10.9559 11.1953C12.2724 10.0858 13.1072 8.4347 13.1072 6.59096C13.1072 4.74722 12.2724 3.09613 10.9559 1.98657C9.63946 3.09613 8.80469 4.74722 8.80469 6.59096C8.80469 8.4347 9.63946 10.0858 10.9559 11.1953Z" fill="#FF5E00"/>
</g>
</svg>
