<svg width="33" height="22" viewBox="0 0 33 22" fill="none" xmlns="http://www.w3.org/2000/svg">
<g id="Payment method icon">
<rect x="1.05993" y="0.270864" width="30.8785" height="21.1274" rx="2.97951" fill="white"/>
<path id="ApplePay" fill-rule="evenodd" clip-rule="evenodd" d="M9.46034 7.53278C9.19368 7.8505 8.76702 8.1011 8.34036 8.0653C8.28703 7.6357 8.49591 7.17926 8.74035 6.89734C9.00702 6.57067 9.47367 6.33797 9.85144 6.32007C9.89589 6.76756 9.72256 7.20611 9.46034 7.53278ZM9.84671 8.15033C9.47083 8.12855 9.12786 8.26415 8.85083 8.37368C8.67256 8.44416 8.52159 8.50385 8.40674 8.50385C8.27785 8.50385 8.12065 8.44097 7.94415 8.37037C7.71288 8.27787 7.44848 8.1721 7.1712 8.17718C6.53566 8.18613 5.94456 8.5486 5.62012 9.12587C4.95347 10.2804 5.44679 11.9898 6.09122 12.9296C6.40677 13.395 6.78455 13.9051 7.28231 13.8872C7.5013 13.8789 7.65883 13.8116 7.82185 13.7419L7.82186 13.7419C8.00954 13.6617 8.20452 13.5784 8.50896 13.5784C8.80284 13.5784 8.98929 13.6596 9.16827 13.7375C9.33845 13.8115 9.50188 13.8826 9.74449 13.8783C10.26 13.8693 10.5845 13.4129 10.9 12.9475C11.2406 12.448 11.3902 11.9605 11.4129 11.8865L11.4156 11.878C11.415 11.8774 11.4108 11.8755 11.4034 11.8721L11.4034 11.8721C11.2896 11.8196 10.4195 11.4185 10.4111 10.3431C10.4028 9.44036 11.1013 8.983 11.2112 8.911L11.2112 8.91099L11.2113 8.91097C11.2179 8.9066 11.2224 8.90366 11.2245 8.90212C10.78 8.23983 10.0867 8.16823 9.84671 8.15033ZM13.416 13.829V6.8526H16.0159C17.3581 6.8526 18.2959 7.78339 18.2959 9.14378C18.2959 10.5042 17.3403 11.4439 15.9804 11.4439H14.4915V13.829H13.416ZM14.491 7.76545H15.7309C16.6642 7.76545 17.1976 8.26664 17.1976 9.14821C17.1976 10.0298 16.6642 10.5354 15.7265 10.5354H14.491V7.76545ZM21.8468 12.9922C21.5623 13.5382 20.9357 13.8828 20.2601 13.8828C19.2601 13.8828 18.5624 13.2831 18.5624 12.3792C18.5624 11.4842 19.2379 10.9696 20.4868 10.8935L21.829 10.8129V10.4281C21.829 9.85979 21.4601 9.55102 20.8023 9.55102C20.2601 9.55102 19.8646 9.83294 19.7846 10.2625H18.8157C18.8468 9.35859 19.6913 8.70078 20.8335 8.70078C22.0645 8.70078 22.8645 9.34964 22.8645 10.3565V13.8291H21.869V12.9922H21.8468ZM20.5487 13.0549C19.9754 13.0549 19.6109 12.7774 19.6109 12.3523C19.6109 11.9138 19.962 11.6587 20.6331 11.6184L21.8287 11.5423V11.9361C21.8287 12.5895 21.2776 13.0549 20.5487 13.0549ZM26.1668 14.102C25.7357 15.3237 25.2424 15.7264 24.1935 15.7264C24.1135 15.7264 23.8468 15.7175 23.7846 15.6996V14.8628C23.8513 14.8717 24.0157 14.8807 24.1002 14.8807C24.5757 14.8807 24.8424 14.6793 25.0068 14.1557L25.1046 13.847L23.2824 8.7679H24.4068L25.6735 12.8893H25.6957L26.9623 8.7679H28.0557L26.1668 14.102Z" fill="black"/>
<rect x="1.05993" y="0.270864" width="30.8785" height="21.1274" rx="2.97951" stroke="#F2F4F7" stroke-width="0.541728"/>
</g>
</svg>
