<svg width="11" height="13" viewBox="0 0 11 13" fill="none" xmlns="http://www.w3.org/2000/svg">
<g id="PayPal">
<path id="Fill 7" fill-rule="evenodd" clip-rule="evenodd" d="M3.08917 11.6566L3.28846 10.3483L2.84451 10.3376H0.724609L2.19787 0.682487C2.20246 0.653251 2.2173 0.62611 2.23896 0.606803C2.26074 0.587496 2.28849 0.576904 2.31753 0.576904H5.89201C7.07877 0.576904 7.8977 0.832091 8.3252 1.33585C8.52567 1.57217 8.65333 1.81919 8.71514 2.09092C8.77993 2.37612 8.781 2.71681 8.7178 3.13241L8.71321 3.16264V3.42897L8.91368 3.54636C9.08244 3.63893 9.21661 3.74484 9.31951 3.86609C9.49094 4.06821 9.60184 4.32505 9.6487 4.62944C9.69717 4.94255 9.68115 5.31524 9.60184 5.73713C9.51037 6.22235 9.36253 6.64501 9.16281 6.99078C8.97922 7.3094 8.74524 7.57375 8.46739 7.77851C8.20213 7.97313 7.88703 8.12086 7.53072 8.21541C7.18541 8.3083 6.79174 8.35519 6.35997 8.35519H6.0818C5.88294 8.35519 5.68973 8.42922 5.53805 8.56195C5.38594 8.69743 5.28539 8.88256 5.25454 9.08501L5.23352 9.20284L4.88137 11.509L4.86547 11.5936C4.8612 11.6204 4.85394 11.6338 4.84327 11.6428C4.83377 11.6511 4.8201 11.6566 4.80676 11.6566H3.08917Z" fill="#28356A"/>
<path id="Fill 8" fill-rule="evenodd" clip-rule="evenodd" d="M9.10451 3.19336C9.09394 3.26386 9.08167 3.3359 9.068 3.40993C8.59663 5.91149 6.98386 6.77568 4.92415 6.77568H3.87541C3.62349 6.77568 3.41118 6.96467 3.37201 7.22152L2.68299 11.7389C2.65747 11.9076 2.78322 12.0595 2.94781 12.0595H4.80791C5.02812 12.0595 5.21524 11.8941 5.24993 11.6696L5.26818 11.5719L5.61841 9.27481L5.64093 9.14882C5.67519 8.92353 5.86274 8.75804 6.08295 8.75804H6.36112C8.16325 8.75804 9.57407 8.00186 9.98642 5.81341C10.1586 4.89924 10.0695 4.13588 9.61367 3.59903C9.47576 3.43718 9.30465 3.3028 9.10451 3.19336Z" fill="#298FC2"/>
<path id="Fill 9" fill-rule="evenodd" clip-rule="evenodd" d="M8.61055 2.9903C8.5385 2.96856 8.4642 2.94893 8.38799 2.93116C8.31135 2.91384 8.23289 2.89851 8.15209 2.88505C7.86933 2.83783 7.55945 2.81543 7.22759 2.81543H4.42592C4.35686 2.81543 4.29132 2.83154 4.23272 2.86066C4.10345 2.92487 4.00749 3.05131 3.98422 3.2061L3.38817 7.10793L3.37109 7.22167C3.41027 6.96483 3.62258 6.77584 3.87449 6.77584H4.92324C6.98294 6.77584 8.59571 5.91121 9.06708 3.41009C9.08117 3.33606 9.09302 3.26402 9.10359 3.19352C8.98436 3.1281 8.8552 3.07216 8.71612 3.0245C8.68175 3.01269 8.64631 3.00133 8.61055 2.9903Z" fill="#22284F"/>
<path id="Fill 11" fill-rule="evenodd" clip-rule="evenodd" d="M3.984 3.20604C4.00727 3.05125 4.10323 2.92481 4.2325 2.86104C4.29153 2.83181 4.35664 2.8157 4.4257 2.8157H7.22737C7.55923 2.8157 7.86911 2.83821 8.15187 2.88543C8.23267 2.89878 8.31113 2.91422 8.38777 2.93154C8.46398 2.9492 8.53827 2.96894 8.61033 2.99057C8.64608 3.0016 8.68152 3.01307 8.71622 3.02444C8.8553 3.0721 8.98456 3.12848 9.1038 3.19346C9.24406 2.26903 9.10262 1.63961 8.61908 1.06966C8.0859 0.44212 7.12372 0.173584 5.89245 0.173584H2.31786C2.06637 0.173584 1.85182 0.362574 1.81297 0.619857L0.324123 10.3742C0.294769 10.5672 0.438764 10.7413 0.627058 10.7413H2.83385L3.984 3.20604Z" fill="#28356A"/>
</g>
</svg>
