<svg width="32" height="22" viewBox="0 0 32 22" fill="none" xmlns="http://www.w3.org/2000/svg">
<g id="Payment method icon">
<rect x="0.270864" y="0.270864" width="30.8785" height="21.1274" rx="2.97951" fill="white"/>
<path id="visa-logo" fill-rule="evenodd" clip-rule="evenodd" d="M9.70635 14.318H7.84665L6.4521 8.84125C6.38591 8.58932 6.24537 8.3666 6.03863 8.26163C5.52271 7.99783 4.95419 7.78789 4.33398 7.682V7.47115H7.32981C7.74328 7.47115 8.05338 7.78789 8.10507 8.15574L8.82864 12.1063L10.6874 7.47115H12.4954L9.70635 14.318ZM13.5296 14.318H11.7732L13.2195 7.47115H14.9758L13.5296 14.318ZM17.2473 9.36793C17.299 8.99916 17.6091 8.78831 17.9708 8.78831C18.5394 8.73536 19.1587 8.84125 19.6755 9.10413L19.9856 7.62997C19.4688 7.41912 18.9002 7.31323 18.3843 7.31323C16.6797 7.31323 15.4393 8.26162 15.4393 9.57787C15.4393 10.5792 16.3179 11.105 16.9381 11.4217C17.6091 11.7375 17.8675 11.9484 17.8158 12.2642C17.8158 12.738 17.299 12.9488 16.783 12.9488C16.1628 12.9488 15.5426 12.7909 14.975 12.5271L14.6649 14.0022C15.2851 14.2651 15.9561 14.371 16.5763 14.371C18.4877 14.423 19.6755 13.4755 19.6755 12.0534C19.6755 10.2625 17.2473 10.1575 17.2473 9.36793ZM25.8225 14.318L24.4279 7.47115H22.93C22.6199 7.47115 22.3098 7.682 22.2064 7.99783L19.6241 14.318H21.4321L21.7929 13.3176H24.0144L24.2212 14.318H25.8225ZM23.1889 9.31502L23.7049 11.8955H22.2586L23.1889 9.31502Z" fill="#172B85"/>
<rect x="0.270864" y="0.270864" width="30.8785" height="21.1274" rx="2.97951" stroke="#F2F4F7" stroke-width="0.541728"/>
</g>
</svg>
